<?xml version="1.0" standalone="no"?>
<!DOCTYPE svg PUBLIC "-//W3C//DTD SVG 20010904//EN"
 "http://www.w3.org/TR/2001/REC-SVG-20010904/DTD/svg10.dtd">
<svg version="1.0" xmlns="http://www.w3.org/2000/svg"
 width="1024.000000pt" height="1024.000000pt" viewBox="0 0 1024.000000 1024.000000"
 preserveAspectRatio="xMidYMid meet">
<metadata>
Created by potrace 1.14, written by Peter Selinger 2001-2017
</metadata>
<g transform="translate(0.000000,1024.000000) scale(0.100000,-0.100000)"
fill="#000000" stroke="none">
<path d="M0 5120 l0 -5120 5120 0 5120 0 0 5120 0 5120 -5120 0 -5120 0 0
-5120z m4200 3099 c550 -114 953 -520 1056 -1065 34 -181 33 -470 -1 -639 -9
-44 -32 -126 -50 -182 -221 -666 -914 -1033 -1637 -869 -385 88 -728 363 -897
719 -188 395 -185 936 5 1320 209 419 604 688 1089 741 94 10 332 -3 435 -25z
m2528 -1008 c23 -5 45 -10 47 -13 3 -2 -7 -95 -22 -206 -23 -172 -30 -202 -43
-196 -8 4 -51 9 -95 11 -181 11 -368 -76 -437 -204 -56 -102 -58 -124 -58
-655 l0 -488 -205 0 -205 0 2 858 3 857 200 0 200 0 3 -158 3 -159 35 71 c104
208 344 326 572 282z m702 -1266 c104 -37 174 -134 174 -245 0 -84 -17 -133
-68 -188 -55 -60 -110 -84 -196 -84 -111 0 -199 53 -246 148 -28 57 -26 184 3
239 63 117 208 174 333 130z m-3370 -1454 c63 -11 158 -34 210 -51 99 -32 251
-102 269 -124 8 -10 -9 -56 -65 -177 -42 -90 -80 -168 -84 -172 -4 -5 -38 9
-76 32 -127 77 -256 114 -462 132 -231 21 -416 -5 -578 -81 -286 -133 -460
-367 -520 -695 -19 -105 -18 -319 1 -431 81 -464 402 -786 831 -835 117 -13
260 -5 389 21 114 23 184 50 266 99 l64 39 3 271 2 271 -280 0 -280 0 0 190 0
190 490 0 490 0 0 -538 0 -539 -62 -60 c-375 -358 -1114 -438 -1630 -178 -381
192 -641 548 -724 990 -26 137 -26 441 -1 568 53 265 170 494 346 680 223 234
517 376 871 421 90 11 419 -3 530 -23z m2149 -1027 c314 -79 534 -297 623
-621 18 -65 22 -105 22 -243 0 -198 -16 -271 -94 -425 -85 -171 -198 -284
-370 -374 -153 -79 -341 -113 -526 -92 -386 42 -666 278 -767 645 -32 118 -32
374 0 492 116 423 473 671 933 646 47 -3 127 -15 179 -28z m1478 -1256 c55
-25 120 -99 134 -151 6 -22 10 -66 10 -98 -1 -264 -355 -353 -498 -125 -35 55
-44 165 -18 232 56 147 226 212 372 142z"/>
<path d="M3815 7859 c-450 -40 -752 -342 -824 -826 -14 -92 -14 -289 0 -388
51 -368 259 -651 566 -773 120 -47 210 -63 353 -63 128 0 219 14 320 49 276
96 489 338 569 645 63 244 48 561 -38 782 -152 394 -513 613 -946 574z"/>
<path d="M5883 3160 c-147 -22 -276 -128 -341 -281 -51 -118 -67 -319 -37
-448 71 -301 355 -468 630 -372 106 37 203 134 254 253 61 142 68 366 16 508
-64 175 -179 292 -320 328 -62 16 -145 21 -202 12z"/>
</g>
</svg>
